<svg xmlns="http://www.w3.org/2000/svg" version="1.1" xmlns:xlink="http://www.w3.org/1999/xlink" xmlns:svgjs="http://svgjs.dev/svgjs" width="2000" height="2250" viewBox="0 0 2000 2250"><g transform="matrix(1,0,0,1,3.410605131648481e-13,0)"><svg viewBox="0 0 320 360" data-background-color="#ffffff" preserveAspectRatio="xMidYMid meet" height="2250" width="2000" xmlns="http://www.w3.org/2000/svg" xmlns:xlink="http://www.w3.org/1999/xlink"><g id="tight-bounds" transform="matrix(1,0,0,1,0,0)"><svg viewBox="0 0 320 360" height="360" width="320"><rect width="320.00000000000006" height="360" fill="url(#0d6232a7-ce9c-4fff-ac7b-6d25ed2c3df5)" mask="url(#6360e248-ba5a-412d-912f-af36cb7c540d)" data-fill-palette-color="tertiary"></rect><g><svg></svg></g><g><svg viewBox="0 0 320 360" height="360" width="320"><g><path d="M20.961 227.22l3.726 4.658-1.863-6.056c-0.466-2.795-3.726 0.466-1.863 1.398M25.153 224.425c1.397 2.329 2.795 4.658 2.795 6.987 0 3.261 2.795 4.658 5.123 5.589-3.261-3.726-5.124-13.974-7.918-12.576M204.017 26.929c7.918 0 15.371-0.932 23.756 0.931 20.495 5.124 37.729 15.371 49.374 29.811l32.606 52.169c1.397 13.042 4.192 27.482 3.726 43.319 3.261 0 2.795-4.658 6.521-5.59-3.726 9.316-5.59 20.961-6.521 34.469-2.329-7.453 0-18.632 0.466-24.687-3.261 5.124-5.124 1.397-5.124-0.932 0.466-3.726-1.397-3.261-2.795-4.658-5.124-4.658-8.384-9.782-12.11-17.7 2.329-6.055 2.795-14.905-4.658-19.563-2.329-1.397-5.124-3.726-6.521-7.453-1.863-5.124-5.124-11.179-4.193-19.097 0.466-2.329-6.987 5.124-11.179 1.863-18.166-12.576-36.332-27.016-58.224-39.127-11.645 0-20.029-4.192-24.221-9.316-3.726-4.658-0.932-10.713 4.658-11.179 3.261 0 6.987-0.932 9.782 0.932 0.466-1.863 2.329-4.192 4.657-4.192M157.904 16.215l0.932 0.466c4.658 0.932 6.987 7.453 12.11 5.124 0 3.261 0.466 6.521-0.466 8.85-1.397 3.726-5.59 3.726-8.85 3.726-31.208-1.863-49.374 11.179-68.471 22.358-5.124 3.261-10.713 5.59-14.906 9.782-20.029 18.632-41.921 35.866-47.045 70.335l-4.192 38.195c-0.466 4.192-5.124 8.384-4.192 13.508l3.26 22.824c-3.261-3.261-5.124 0.932-4.192 2.795 0.466 1.397 2.329 6.055 5.124 1.863 3.726 6.987 7.453 20.495 12.576 26.55 15.837 18.632 36.332 35.4 53.101 52.169 4.192-0.932 7.453-0.932 8.384-3.727 1.397 2.795-1.397 5.59-3.726 6.056 7.453 4.658 15.837 8.85 27.016 9.781 14.44 0.932 27.948 3.261 40.524 6.522 6.521-1.863 13.042-2.795 20.029-3.261 2.329 0 3.726-3.726 6.521-4.658l0.466-4.658c2.795 4.192 2.329-1.397 0.466-4.192 3.261 2.795 4.192 5.124 5.589 6.987 0-1.397 3.726-6.521 3.727-0.466l0.931-6.055c1.397-0.932 1.863 5.124 3.261 0.931 1.397-4.192 4.192-0.932 6.987-2.329-0.932 1.863-0.466 5.59 2.794 3.261l3.727-3.261c2.329 5.59 6.055 3.261 7.918 2.329 20.495-13.042 40.99-28.413 60.553-43.784l-0.466 6.055 2.329-7.453c2.329 2.329 4.192 0.466 5.124-0.931 2.795-4.658 6.521-9.316 12.577-13.508-7.453 20.029-16.303 35.866-27.482 48.908l-4.658 5.59c0 3.261-0.932 7.453-4.658 7.918-1.863 0.466-5.59-0.932-8.384 1.863-1.397 1.863 3.261 5.59-0.466 2.795-3.261-2.329-6.521 0-10.248 0.932-2.795 0.932 1.863 3.726 2.795 5.589 0.932 1.863 1.863 3.726 1.398 6.056l-5.124-5.59c-6.055 3.261-9.782 9.316-14.906 13.974-2.329 1.863-1.397 5.124-1.397 7.918-3.261 0-6.987-0.932-8.85 0.932-1.397 1.863-0.932 4.658-0.932 7.453-4.658-0.466-5.124-7.453-9.315-6.056-4.192 0.932-8.85 1.397-12.577 3.727 2.795 5.59-4.658 2.329-3.726 3.26-6.987-4.192-13.042-7.453-20.495-4.658-15.837-5.124-35.4-2.795-49.84-0.931 0-2.329 0.466-4.658-0.466-5.124-0.932 2.329-3.726 1.397-3.26 1.397-8.85-6.055-17.7-9.782-27.016-14.905-8.384 0.932-16.303-3.261-18.632-5.59-6.521-6.055-13.974-2.795-20.029-4.192-13.042-3.261-17.7-16.769-19.098-26.084-0.932-4.658-4.658-6.521-6.055-6.056-6.055-19.563-15.371-37.263-22.824-55.429-1.863-4.658-1.397-9.316-1.397-14.44 2.329 0.932 4.658 0.466 4.192-2.794-2.329-15.371-7.918-27.016-13.974-38.195 3.261-15.837 3.726-34.469 11.179-48.443 6.521-12.576 18.632-19.098 27.016-29.811 2.795-3.726 2.795-8.85 5.59-12.11 9.316-9.316 18.632-19.098 28.879-27.482 4.658-3.726 10.247 0 17.234-1.397 2.329-8.384 11.645-15.837 20.495-13.508 3.726 0.932 11.179-8.85 13.508-9.782 3.726-1.397 1.863 3.726 1.863 6.987 8.85-6.987 20.961-10.713 32.14-14.906" fill="url(#0d6232a7-ce9c-4fff-ac7b-6d25ed2c3df5)" fill-rule="nonzero" stroke="none" stroke-width="1" stroke-linecap="butt" stroke-linejoin="miter" stroke-miterlimit="10" stroke-dasharray="" stroke-dashoffset="0" font-family="none" font-weight="none" font-size="none" text-anchor="none" style="mix-blend-mode: normal" data-fill-palette-color="tertiary"></path></g><g transform="matrix(1,0,0,1,64,158.66193433895296)"><svg viewBox="0 0 192 42.67613132209406" height="42.67613132209406" width="192"><g><svg viewBox="0 0 192 42.67613132209406" height="42.67613132209406" width="192"><g><svg viewBox="0 0 192 42.67613132209406" height="42.67613132209406" width="192"><g id="textblocktransform"><svg viewBox="0 0 192 42.67613132209406" height="42.67613132209406" width="192" id="textblock"><g><svg viewBox="0 0 192 42.67613132209406" height="42.67613132209406" width="192"><g transform="matrix(1,0,0,1,0,0)"><svg width="192" viewBox="-0.05 -35.16 220.10000000000002 48.92999999999999" height="42.67613132209406" data-palette-color="#000000"><path d="M25.68-35.16L32.52-35.16 21.14-14.77 21.14 0 11.45 0 11.45-14.23-0.05-35.16 9.84-35.16 17.48-17.48 25.68-35.16ZM62.6-14.16L62.6-14.16Q62.6-11.96 62.01-10.03 61.42-8.11 60.39-6.47 59.35-4.83 57.88-3.53 56.42-2.22 54.67-1.32 52.93-0.42 50.94 0.07 48.95 0.56 46.85 0.56L46.85 0.56Q44.75 0.56 42.77 0.07 40.79-0.42 39.05-1.32 37.3-2.22 35.84-3.53 34.37-4.83 33.33-6.47 32.3-8.11 31.71-10.05 31.13-11.99 31.13-14.16L31.13-14.16Q31.13-16.33 31.71-18.27 32.3-20.21 33.33-21.85 34.37-23.49 35.84-24.79 37.3-26.1 39.05-27 40.79-27.91 42.77-28.39 44.75-28.88 46.85-28.88L46.85-28.88Q48.95-28.88 50.94-28.39 52.93-27.91 54.67-27 56.42-26.1 57.88-24.79 59.35-23.49 60.39-21.85 61.42-20.21 62.01-18.27 62.6-16.33 62.6-14.16ZM54.2-14.16L54.2-14.16Q54.2-15.33 54.06-16.64 53.93-17.94 53.61-19.2 53.29-20.46 52.74-21.62 52.19-22.78 51.39-23.65 50.58-24.51 49.46-25.04 48.34-25.56 46.85-25.56L46.85-25.56Q45.43-25.56 44.33-25.02 43.23-24.49 42.42-23.6 41.6-22.71 41.05-21.53 40.5-20.36 40.16-19.1 39.82-17.85 39.67-16.56 39.52-15.28 39.52-14.16L39.52-14.16Q39.52-13.04 39.67-11.76 39.82-10.47 40.16-9.2 40.5-7.93 41.05-6.77 41.6-5.62 42.42-4.72 43.23-3.83 44.33-3.3 45.43-2.76 46.85-2.76L46.85-2.76Q48.31-2.76 49.44-3.28 50.56-3.81 51.38-4.69 52.19-5.57 52.73-6.71 53.27-7.86 53.6-9.13 53.93-10.4 54.06-11.69 54.2-12.99 54.2-14.16ZM78.14-35.16L78.14-11.04Q78.14-7.64 77.28-4.14 76.41-0.63 74.86 2.65 73.31 5.93 71.14 8.79 68.96 11.65 66.35 13.77L66.35 13.77 62.59 11.5Q64.06 9.5 65.16 6.96 66.25 4.42 66.99 1.68 67.72-1.05 68.09-3.81 68.45-6.57 68.45-9.06L68.45-9.06 68.45-35.16 78.14-35.16ZM113.79-28.2L113.79 0 105.53 0 105.53-3.37Q104.07-1.37 102.01-0.4 99.94 0.56 97.48 0.56L97.48 0.56Q94.26 0.56 91.72-0.59 89.18-1.73 87.42-3.72 85.66-5.71 84.73-8.4 83.81-11.08 83.81-14.16L83.81-14.16Q83.81-17.24 84.73-19.92 85.66-22.61 87.42-24.6 89.18-26.59 91.72-27.73 94.26-28.88 97.48-28.88L97.48-28.88Q99.11-28.88 100.59-28.39 102.07-27.91 103.3-27.01 104.53-26.12 105.47-24.87 106.41-23.61 106.95-22.07L106.95-22.07 110.61-28.2 113.79-28.2ZM105.49-14.16L105.49-14.16Q105.49-15.26 105.38-16.48 105.27-17.7 105-18.9 104.73-20.09 104.25-21.18 103.78-22.27 103.03-23.11 102.29-23.95 101.24-24.44 100.19-24.93 98.8-24.93L98.8-24.93Q97.4-24.93 96.38-24.43 95.35-23.93 94.62-23.08 93.89-22.24 93.41-21.14 92.94-20.04 92.67-18.85 92.4-17.65 92.29-16.44 92.18-15.23 92.18-14.16L92.18-14.16Q92.18-13.09 92.29-11.87 92.4-10.64 92.67-9.45 92.94-8.25 93.41-7.15 93.89-6.05 94.62-5.21 95.35-4.37 96.38-3.87 97.4-3.37 98.8-3.37L98.8-3.37Q100.07-3.37 101.05-3.89 102.04-4.42 102.79-5.3 103.53-6.18 104.05-7.3 104.56-8.42 104.88-9.62 105.19-10.82 105.34-12 105.49-13.18 105.49-14.16ZM150.65-14.16L150.65-14.16Q150.65-11.08 149.72-8.4 148.79-5.71 147.04-3.72 145.28-1.73 142.74-0.59 140.2 0.56 136.98 0.56L136.98 0.56Q134.51 0.56 132.45-0.4 130.39-1.37 128.92-3.37L128.92-3.37 128.92 13.01 120.67 13.01 120.67-28.2 123.84-28.2 127.5-22.07Q128.04-23.61 128.98-24.87 129.92-26.12 131.15-27.01 132.39-27.91 133.86-28.39 135.34-28.88 136.98-28.88L136.98-28.88Q140.2-28.88 142.74-27.73 145.28-26.59 147.04-24.6 148.79-22.61 149.72-19.92 150.65-17.24 150.65-14.16ZM142.28-14.16L142.28-14.16Q142.28-15.23 142.17-16.44 142.06-17.65 141.79-18.85 141.52-20.04 141.04-21.14 140.57-22.24 139.83-23.08 139.1-23.93 138.06-24.43 137.03-24.93 135.66-24.93L135.66-24.93Q134.24-24.93 133.21-24.44 132.17-23.95 131.42-23.11 130.68-22.27 130.2-21.18 129.73-20.09 129.46-18.9 129.19-17.7 129.08-16.48 128.97-15.26 128.97-14.16L128.97-14.16Q128.97-13.18 129.12-12 129.26-10.82 129.58-9.62 129.9-8.42 130.41-7.3 130.92-6.18 131.67-5.3 132.41-4.42 133.4-3.89 134.39-3.37 135.66-3.37L135.66-3.37Q137.05-3.37 138.08-3.87 139.1-4.37 139.83-5.21 140.57-6.05 141.04-7.15 141.52-8.25 141.79-9.45 142.06-10.64 142.17-11.87 142.28-13.09 142.28-14.16ZM184.34-28.2L184.34 0 176.09 0 176.09-3.37Q174.62-1.37 172.56-0.4 170.5 0.56 168.03 0.56L168.03 0.56Q164.81 0.56 162.27-0.59 159.73-1.73 157.97-3.72 156.21-5.71 155.29-8.4 154.36-11.08 154.36-14.16L154.36-14.16Q154.36-17.24 155.29-19.92 156.21-22.61 157.97-24.6 159.73-26.59 162.27-27.73 164.81-28.88 168.03-28.88L168.03-28.88Q169.67-28.88 171.14-28.39 172.62-27.91 173.85-27.01 175.09-26.12 176.03-24.87 176.97-23.61 177.5-22.07L177.5-22.07 181.16-28.2 184.34-28.2ZM176.04-14.16L176.04-14.16Q176.04-15.26 175.93-16.48 175.82-17.7 175.55-18.9 175.28-20.09 174.8-21.18 174.33-22.27 173.58-23.11 172.84-23.95 171.79-24.44 170.74-24.93 169.35-24.93L169.35-24.93Q167.96-24.93 166.93-24.43 165.91-23.93 165.17-23.08 164.44-22.24 163.96-21.14 163.49-20.04 163.22-18.85 162.95-17.65 162.84-16.44 162.73-15.23 162.73-14.16L162.73-14.16Q162.73-13.09 162.84-11.87 162.95-10.64 163.22-9.45 163.49-8.25 163.96-7.15 164.44-6.05 165.17-5.21 165.91-4.37 166.93-3.87 167.96-3.37 169.35-3.37L169.35-3.37Q170.62-3.37 171.61-3.89 172.59-4.42 173.34-5.3 174.08-6.18 174.6-7.3 175.11-8.42 175.43-9.62 175.74-10.82 175.89-12 176.04-13.18 176.04-14.16ZM220.05-16.16L220.05-16.16Q220.05-13.31 219.36-10.21 218.66-7.1 217.42-4.13 216.17-1.15 214.44 1.48 212.7 4.1 210.63 6.01L210.63 6.01 207.53 4.32Q208.19 3.1 208.77 1.59 209.36 0.07 209.84-1.62 210.31-3.32 210.69-5.13 211.07-6.93 211.33-8.7 211.58-10.47 211.72-12.15 211.85-13.82 211.85-15.26L211.85-15.26Q211.85-16.21 211.78-17.3 211.7-18.38 211.47-19.47 211.24-20.56 210.85-21.56 210.46-22.56 209.81-23.32 209.16-24.07 208.25-24.54 207.33-25 206.09-25L206.09-25Q204.87-25 203.92-24.45 202.96-23.9 202.23-23.01 201.5-22.12 200.97-20.97 200.45-19.82 200.12-18.62 199.79-17.41 199.64-16.24 199.5-15.06 199.5-14.14L199.5-14.14 199.5 0 191.22 0 191.22-28.2 194.39-28.2 198.18-21.63Q198.86-23.27 199.89-24.61 200.91-25.95 202.21-26.9 203.5-27.86 205.08-28.37 206.65-28.88 208.48-28.88L208.48-28.88Q211.41-28.88 213.58-27.93 215.76-26.98 217.2-25.28 218.64-23.58 219.35-21.25 220.05-18.92 220.05-16.16Z" opacity="1" transform="matrix(1,0,0,1,0,0)" fill="#000000" class="wordmark-text-0" data-fill-palette-color="primary" id="text-0"></path></svg></g></svg></g></svg></g></svg></g><g></g></svg></g></svg></g></svg></g><defs></defs><mask id="6360e248-ba5a-412d-912f-af36cb7c540d"><g id="SvgjsG1291"><svg viewBox="0 0 320 360" height="360" width="320"><g><svg></svg></g><g><svg viewBox="0 0 320 360" height="360" width="320"><g><path d="M20.961 227.22l3.726 4.658-1.863-6.056c-0.466-2.795-3.726 0.466-1.863 1.398M25.153 224.425c1.397 2.329 2.795 4.658 2.795 6.987 0 3.261 2.795 4.658 5.123 5.589-3.261-3.726-5.124-13.974-7.918-12.576M204.017 26.929c7.918 0 15.371-0.932 23.756 0.931 20.495 5.124 37.729 15.371 49.374 29.811l32.606 52.169c1.397 13.042 4.192 27.482 3.726 43.319 3.261 0 2.795-4.658 6.521-5.59-3.726 9.316-5.59 20.961-6.521 34.469-2.329-7.453 0-18.632 0.466-24.687-3.261 5.124-5.124 1.397-5.124-0.932 0.466-3.726-1.397-3.261-2.795-4.658-5.124-4.658-8.384-9.782-12.11-17.7 2.329-6.055 2.795-14.905-4.658-19.563-2.329-1.397-5.124-3.726-6.521-7.453-1.863-5.124-5.124-11.179-4.193-19.097 0.466-2.329-6.987 5.124-11.179 1.863-18.166-12.576-36.332-27.016-58.224-39.127-11.645 0-20.029-4.192-24.221-9.316-3.726-4.658-0.932-10.713 4.658-11.179 3.261 0 6.987-0.932 9.782 0.932 0.466-1.863 2.329-4.192 4.657-4.192M157.904 16.215l0.932 0.466c4.658 0.932 6.987 7.453 12.11 5.124 0 3.261 0.466 6.521-0.466 8.85-1.397 3.726-5.59 3.726-8.85 3.726-31.208-1.863-49.374 11.179-68.471 22.358-5.124 3.261-10.713 5.59-14.906 9.782-20.029 18.632-41.921 35.866-47.045 70.335l-4.192 38.195c-0.466 4.192-5.124 8.384-4.192 13.508l3.26 22.824c-3.261-3.261-5.124 0.932-4.192 2.795 0.466 1.397 2.329 6.055 5.124 1.863 3.726 6.987 7.453 20.495 12.576 26.55 15.837 18.632 36.332 35.4 53.101 52.169 4.192-0.932 7.453-0.932 8.384-3.727 1.397 2.795-1.397 5.59-3.726 6.056 7.453 4.658 15.837 8.85 27.016 9.781 14.44 0.932 27.948 3.261 40.524 6.522 6.521-1.863 13.042-2.795 20.029-3.261 2.329 0 3.726-3.726 6.521-4.658l0.466-4.658c2.795 4.192 2.329-1.397 0.466-4.192 3.261 2.795 4.192 5.124 5.589 6.987 0-1.397 3.726-6.521 3.727-0.466l0.931-6.055c1.397-0.932 1.863 5.124 3.261 0.931 1.397-4.192 4.192-0.932 6.987-2.329-0.932 1.863-0.466 5.59 2.794 3.261l3.727-3.261c2.329 5.59 6.055 3.261 7.918 2.329 20.495-13.042 40.99-28.413 60.553-43.784l-0.466 6.055 2.329-7.453c2.329 2.329 4.192 0.466 5.124-0.931 2.795-4.658 6.521-9.316 12.577-13.508-7.453 20.029-16.303 35.866-27.482 48.908l-4.658 5.59c0 3.261-0.932 7.453-4.658 7.918-1.863 0.466-5.59-0.932-8.384 1.863-1.397 1.863 3.261 5.59-0.466 2.795-3.261-2.329-6.521 0-10.248 0.932-2.795 0.932 1.863 3.726 2.795 5.589 0.932 1.863 1.863 3.726 1.398 6.056l-5.124-5.59c-6.055 3.261-9.782 9.316-14.906 13.974-2.329 1.863-1.397 5.124-1.397 7.918-3.261 0-6.987-0.932-8.85 0.932-1.397 1.863-0.932 4.658-0.932 7.453-4.658-0.466-5.124-7.453-9.315-6.056-4.192 0.932-8.85 1.397-12.577 3.727 2.795 5.59-4.658 2.329-3.726 3.26-6.987-4.192-13.042-7.453-20.495-4.658-15.837-5.124-35.4-2.795-49.84-0.931 0-2.329 0.466-4.658-0.466-5.124-0.932 2.329-3.726 1.397-3.26 1.397-8.85-6.055-17.7-9.782-27.016-14.905-8.384 0.932-16.303-3.261-18.632-5.59-6.521-6.055-13.974-2.795-20.029-4.192-13.042-3.261-17.7-16.769-19.098-26.084-0.932-4.658-4.658-6.521-6.055-6.056-6.055-19.563-15.371-37.263-22.824-55.429-1.863-4.658-1.397-9.316-1.397-14.44 2.329 0.932 4.658 0.466 4.192-2.794-2.329-15.371-7.918-27.016-13.974-38.195 3.261-15.837 3.726-34.469 11.179-48.443 6.521-12.576 18.632-19.098 27.016-29.811 2.795-3.726 2.795-8.85 5.59-12.11 9.316-9.316 18.632-19.098 28.879-27.482 4.658-3.726 10.247 0 17.234-1.397 2.329-8.384 11.645-15.837 20.495-13.508 3.726 0.932 11.179-8.85 13.508-9.782 3.726-1.397 1.863 3.726 1.863 6.987 8.85-6.987 20.961-10.713 32.14-14.906" fill="white" fill-rule="nonzero" stroke="none" stroke-width="1" stroke-linecap="butt" stroke-linejoin="miter" stroke-miterlimit="10" stroke-dasharray="" stroke-dashoffset="0" font-family="none" font-weight="none" font-size="none" text-anchor="none" style="mix-blend-mode: normal"></path></g><g transform="matrix(1,0,0,1,64,158.66193433895296)"><svg viewBox="0 0 192 42.67613132209406" height="42.67613132209406" width="192"><g><svg viewBox="0 0 192 42.67613132209406" height="42.67613132209406" width="192"><g><svg viewBox="0 0 192 42.67613132209406" height="42.67613132209406" width="192"><g id="SvgjsG1290"><svg viewBox="0 0 192 42.67613132209406" height="42.67613132209406" width="192" id="SvgjsSvg1289"><g><svg viewBox="0 0 192 42.67613132209406" height="42.67613132209406" width="192"><g transform="matrix(1,0,0,1,0,0)"><svg width="192" viewBox="-0.05 -35.16 220.10000000000002 48.92999999999999" height="42.67613132209406" data-palette-color="#000000"><path d="M25.68-35.16L32.52-35.16 21.14-14.77 21.14 0 11.45 0 11.45-14.23-0.05-35.16 9.84-35.16 17.48-17.48 25.68-35.16ZM62.6-14.16L62.6-14.16Q62.6-11.96 62.01-10.03 61.42-8.11 60.39-6.47 59.35-4.83 57.88-3.53 56.42-2.22 54.67-1.32 52.93-0.42 50.94 0.07 48.95 0.56 46.85 0.56L46.85 0.56Q44.75 0.56 42.77 0.07 40.79-0.42 39.05-1.32 37.3-2.22 35.84-3.53 34.37-4.83 33.33-6.47 32.3-8.11 31.71-10.05 31.13-11.99 31.13-14.16L31.13-14.16Q31.13-16.33 31.71-18.27 32.3-20.21 33.33-21.85 34.37-23.49 35.84-24.79 37.3-26.1 39.05-27 40.79-27.91 42.77-28.39 44.75-28.88 46.85-28.88L46.85-28.88Q48.95-28.88 50.94-28.39 52.93-27.91 54.67-27 56.42-26.1 57.88-24.79 59.35-23.49 60.39-21.85 61.42-20.21 62.01-18.27 62.6-16.33 62.6-14.16ZM54.2-14.16L54.2-14.16Q54.2-15.33 54.06-16.64 53.93-17.94 53.61-19.2 53.29-20.46 52.74-21.62 52.19-22.78 51.39-23.65 50.58-24.51 49.46-25.04 48.34-25.56 46.85-25.56L46.85-25.56Q45.43-25.56 44.33-25.02 43.23-24.49 42.42-23.6 41.6-22.71 41.05-21.53 40.5-20.36 40.16-19.1 39.82-17.85 39.67-16.56 39.52-15.28 39.52-14.16L39.52-14.16Q39.52-13.04 39.67-11.76 39.82-10.47 40.16-9.2 40.5-7.93 41.05-6.77 41.6-5.62 42.42-4.72 43.23-3.83 44.33-3.3 45.43-2.76 46.85-2.76L46.85-2.76Q48.31-2.76 49.44-3.28 50.56-3.81 51.38-4.69 52.19-5.57 52.73-6.71 53.27-7.86 53.6-9.13 53.93-10.4 54.06-11.69 54.2-12.99 54.2-14.16ZM78.14-35.16L78.14-11.04Q78.14-7.64 77.28-4.14 76.41-0.63 74.86 2.65 73.31 5.93 71.14 8.79 68.96 11.65 66.35 13.77L66.35 13.77 62.59 11.5Q64.06 9.5 65.16 6.96 66.25 4.42 66.99 1.68 67.72-1.05 68.09-3.81 68.45-6.57 68.45-9.06L68.45-9.06 68.45-35.16 78.14-35.16ZM113.79-28.2L113.79 0 105.53 0 105.53-3.37Q104.07-1.37 102.01-0.4 99.94 0.56 97.48 0.56L97.48 0.56Q94.26 0.56 91.72-0.59 89.18-1.73 87.42-3.72 85.66-5.71 84.73-8.4 83.81-11.08 83.81-14.16L83.81-14.16Q83.81-17.24 84.73-19.92 85.66-22.61 87.42-24.6 89.18-26.59 91.72-27.73 94.26-28.88 97.48-28.88L97.48-28.88Q99.11-28.88 100.59-28.39 102.07-27.91 103.3-27.01 104.53-26.12 105.47-24.87 106.41-23.61 106.95-22.07L106.95-22.07 110.61-28.2 113.79-28.2ZM105.49-14.16L105.49-14.16Q105.49-15.26 105.38-16.48 105.27-17.7 105-18.9 104.73-20.09 104.25-21.18 103.78-22.27 103.03-23.11 102.29-23.95 101.24-24.44 100.19-24.93 98.8-24.93L98.8-24.93Q97.4-24.93 96.38-24.43 95.35-23.93 94.62-23.08 93.89-22.24 93.41-21.14 92.94-20.04 92.67-18.85 92.4-17.65 92.29-16.44 92.18-15.23 92.18-14.16L92.18-14.16Q92.18-13.09 92.29-11.87 92.4-10.64 92.67-9.45 92.94-8.25 93.41-7.15 93.89-6.05 94.62-5.21 95.35-4.37 96.38-3.87 97.4-3.37 98.8-3.37L98.8-3.37Q100.07-3.37 101.05-3.89 102.04-4.42 102.79-5.3 103.53-6.18 104.05-7.3 104.56-8.42 104.88-9.62 105.19-10.82 105.34-12 105.49-13.18 105.49-14.16ZM150.65-14.16L150.65-14.16Q150.65-11.08 149.72-8.4 148.79-5.71 147.04-3.72 145.28-1.73 142.74-0.59 140.2 0.56 136.98 0.56L136.98 0.56Q134.51 0.56 132.45-0.4 130.39-1.37 128.92-3.37L128.92-3.37 128.92 13.01 120.67 13.01 120.67-28.2 123.84-28.2 127.5-22.07Q128.04-23.61 128.98-24.87 129.92-26.12 131.15-27.01 132.39-27.91 133.86-28.39 135.34-28.88 136.98-28.88L136.98-28.88Q140.2-28.88 142.74-27.73 145.28-26.59 147.04-24.6 148.79-22.61 149.72-19.92 150.65-17.24 150.65-14.16ZM142.28-14.16L142.28-14.16Q142.28-15.23 142.17-16.44 142.06-17.65 141.79-18.85 141.52-20.04 141.04-21.14 140.57-22.24 139.83-23.08 139.1-23.93 138.06-24.43 137.03-24.93 135.66-24.93L135.66-24.93Q134.24-24.93 133.21-24.44 132.17-23.95 131.42-23.11 130.68-22.27 130.2-21.18 129.73-20.09 129.46-18.9 129.19-17.7 129.08-16.48 128.97-15.26 128.97-14.16L128.97-14.16Q128.97-13.18 129.12-12 129.26-10.82 129.58-9.62 129.9-8.42 130.41-7.3 130.92-6.18 131.67-5.3 132.41-4.42 133.4-3.89 134.39-3.37 135.66-3.37L135.66-3.37Q137.05-3.37 138.08-3.87 139.1-4.37 139.83-5.21 140.57-6.05 141.04-7.15 141.52-8.25 141.79-9.45 142.06-10.64 142.17-11.87 142.28-13.09 142.28-14.16ZM184.34-28.2L184.34 0 176.09 0 176.09-3.37Q174.62-1.37 172.56-0.4 170.5 0.56 168.03 0.56L168.03 0.56Q164.81 0.56 162.27-0.59 159.73-1.73 157.97-3.72 156.21-5.71 155.29-8.4 154.36-11.08 154.36-14.16L154.36-14.16Q154.36-17.24 155.29-19.92 156.21-22.61 157.97-24.6 159.73-26.59 162.27-27.73 164.81-28.88 168.03-28.88L168.03-28.88Q169.67-28.88 171.14-28.39 172.62-27.91 173.85-27.01 175.09-26.12 176.03-24.87 176.97-23.61 177.5-22.07L177.5-22.07 181.16-28.2 184.34-28.2ZM176.04-14.16L176.04-14.16Q176.04-15.26 175.93-16.48 175.82-17.7 175.55-18.9 175.28-20.09 174.8-21.18 174.33-22.27 173.58-23.11 172.84-23.95 171.79-24.44 170.74-24.93 169.35-24.93L169.35-24.93Q167.96-24.93 166.93-24.43 165.91-23.93 165.17-23.08 164.44-22.24 163.96-21.14 163.49-20.04 163.22-18.85 162.95-17.65 162.84-16.44 162.73-15.23 162.73-14.16L162.73-14.16Q162.73-13.09 162.84-11.87 162.95-10.64 163.22-9.45 163.49-8.25 163.96-7.15 164.44-6.05 165.17-5.21 165.91-4.37 166.93-3.87 167.96-3.37 169.35-3.37L169.35-3.37Q170.62-3.37 171.61-3.89 172.59-4.42 173.34-5.3 174.08-6.18 174.6-7.3 175.11-8.42 175.43-9.62 175.74-10.82 175.89-12 176.04-13.18 176.04-14.16ZM220.05-16.16L220.05-16.16Q220.05-13.31 219.36-10.21 218.66-7.1 217.42-4.13 216.17-1.15 214.44 1.48 212.7 4.1 210.63 6.01L210.63 6.01 207.53 4.32Q208.19 3.1 208.77 1.59 209.36 0.07 209.84-1.62 210.31-3.32 210.69-5.13 211.07-6.93 211.33-8.7 211.58-10.47 211.72-12.15 211.85-13.82 211.85-15.26L211.85-15.26Q211.85-16.21 211.78-17.3 211.7-18.38 211.47-19.47 211.24-20.56 210.85-21.56 210.46-22.56 209.81-23.32 209.16-24.07 208.25-24.54 207.33-25 206.09-25L206.09-25Q204.87-25 203.92-24.45 202.96-23.9 202.23-23.01 201.5-22.12 200.97-20.97 200.45-19.82 200.12-18.62 199.79-17.41 199.64-16.24 199.5-15.06 199.5-14.14L199.5-14.14 199.5 0 191.22 0 191.22-28.2 194.39-28.2 198.18-21.63Q198.86-23.27 199.89-24.61 200.91-25.95 202.21-26.9 203.5-27.86 205.08-28.37 206.65-28.88 208.48-28.88L208.48-28.88Q211.41-28.88 213.58-27.93 215.76-26.98 217.2-25.28 218.64-23.58 219.35-21.25 220.05-18.92 220.05-16.16Z" opacity="1" transform="matrix(1,0,0,1,0,0)" fill="black" class="wordmark-text-0" id="SvgjsPath1288"></path></svg></g></svg></g></svg></g></svg></g><g></g></svg></g></svg></g></svg></g><defs><mask></mask></defs></svg><rect width="320" height="360" fill="black" stroke="none" visibility="hidden"></rect></g></mask><linearGradient x1="0.054" x2="0.941" y1="0.5" y2="0.5" id="0d6232a7-ce9c-4fff-ac7b-6d25ed2c3df5"><stop stop-color="#26282a" offset="0"></stop><stop stop-color="#9e9fa0" offset="0.498"></stop><stop stop-color="#26282a" offset="1"></stop></linearGradient></svg><rect width="320" height="360" fill="none" stroke="none" visibility="hidden"></rect></g></svg></g></svg>